<svg width="600" height="468" viewBox="0 0 600 468" fill="none" xmlns="http://www.w3.org/2000/svg">
<path fill-rule="evenodd" clip-rule="evenodd" d="M33.3333 0.666687C14.924 0.666687 0 15.5907 0 34C0 52.4094 14.924 67.3334 33.3333 67.3334H566.667C585.077 67.3334 600 52.4094 600 34C600 15.5907 585.077 0.666687 566.667 0.666687H33.3333ZM133.333 234C133.333 215.59 148.257 200.667 166.667 200.667H566.667C585.077 200.667 600 215.59 600 234C600 252.41 585.077 267.333 566.667 267.333H166.667C148.257 267.333 133.333 252.41 133.333 234ZM333.333 434C333.333 415.59 348.257 400.667 366.667 400.667H566.667C585.077 400.667 600 415.59 600 434C600 452.41 585.077 467.333 566.667 467.333H366.667C348.257 467.333 333.333 452.41 333.333 434Z" fill="#ECF7A3"/>
</svg>
