<svg width="264" height="87" viewBox="0 0 264 87" fill="none" xmlns="http://www.w3.org/2000/svg">
<path d="M20.8475 69.25C8.3475 66.1875 0.347504 54.0625 0.347504 42.0625C0.347504 26 12.0975 12.1875 29.285 12.125C33.535 12.125 36.035 12.5 37.91 13.125C41.2225 14.1875 45.7225 14.375 49.0975 13.5625L49.7225 13.375C48.41 19.5625 47.535 26.1875 47.0975 33.25C42.535 0.875 16.41 15.1875 16.41 43.9375C16.41 79.75 42.785 69 47.66 54.875C48.0975 60 48.7225 64.1875 49.7225 69L49.0975 68.8125C45.9725 68.0625 42.3475 67.9375 39.41 68.5C31.66 69.9375 29.035 71.3125 20.8475 69.25ZM82.145 71.6875C79.2075 81.0625 72.3325 85.3125 62.7075 85.8125C48.895 86.5 50.8325 73.0625 67.4575 71.625C67.2075 74.25 68.0825 75.8125 69.27 76.5625C73.52 79.1875 78.8325 76.3125 80.145 71.9375C81.77 66.6875 80.145 59.5625 78.2075 55.1875C76.8325 64.8125 70.3325 69.9375 64.3325 70.25C58.4575 70.5 53.02 66.1875 53.52 57C53.8325 50 55.52 42 49.2075 30.1875H65.645C68.3325 39.0625 63.02 54.125 64.27 62.4375C65.4575 70.0625 78.27 65.6875 77.145 45.875C76.77 39.125 75.27 33.4375 73.0825 30.1875H89.4575C82.145 38.875 86.145 58.75 82.145 71.6875ZM109.255 70C108.38 70.1875 107.443 70.25 106.443 70.25C94.255 70.25 87.005 61 87.0675 50.6875C87.255 24.125 118.505 25.25 121.755 36.4375C122.318 38.375 121.755 40.5 120.068 42.0625C118.505 43.5625 116.13 44.1875 114.318 44.4375C108.63 45.0625 105.818 40.75 109.818 37.1875C111.005 36.125 112.818 31.75 109.943 30.9375C106.13 30 101.693 35.75 99.88 42.375C98.505 47.625 97.3175 59.25 102.755 65.375C104.63 67.4375 106.943 68.4375 108.943 68.1875C113.443 67.6875 110.943 59.9375 107.443 57.375C117.193 49.5625 124.005 55.75 119.88 62.6875C118.193 65.625 114.693 69 109.255 70ZM163.904 69H125.506V65.8164H131.892V21.0117H125.506V17.8086H144.705V21.0117H138.299V65.8164H157.498V62.6133H160.701V59.4102H163.904V56.207H167.088V62.6133H163.904V69ZM180.702 24.2148H174.295V17.8086H180.702V24.2148ZM183.905 69H171.112V65.8164H174.295V40.2109H171.112V37.0078H174.295V33.8047H177.499V30.6016H180.702V65.8164H183.905V69ZM200.683 69H187.89V65.8164H191.074V40.2109H187.89V37.0078H191.074V33.8047H194.277V30.6016H197.48V37.0078H200.683V40.2109H197.48V65.8164H200.683V69ZM224.687 69H211.874V65.8164H215.077V40.2109H211.874V37.0078H200.683V33.8047H215.077V37.0078H218.281V40.2109H221.484V65.8164H224.687V69ZM241.524 69H228.731V65.8164H231.914V17.8086H228.731V14.6055H231.914V11.4023H235.117V8.21875H238.32V49.8008H241.524V46.6172H244.727V49.8008H247.93V53.0039H251.113V56.207H254.317V59.4102H257.52V62.6133H260.723V65.8164H263.926V69H251.113V65.8164H254.317V62.6133H251.113V59.4102H247.93V56.207H244.727V53.0039H238.32V65.8164H241.524V69ZM254.317 40.2109H251.113V37.0078H246.328V33.8047H260.723V37.0078H254.317V40.2109ZM251.113 43.4141H247.93V40.2109H251.113V43.4141ZM247.93 46.6172H244.727V43.4141H247.93V46.6172Z" fill="#005E42"/>
</svg>
