<svg width="67" height="64" viewBox="0 0 67 64" fill="none" xmlns="http://www.w3.org/2000/svg">
<path d="M48.2827 11.3363L50.7595 9.90732C51.7598 9.33575 52.9744 10.1931 52.7362 11.2886L49.4735 26.5069C49.3068 27.269 48.5209 27.7215 47.7826 27.4833L32.9454 22.7916C31.8499 22.4582 31.6832 20.9578 32.6834 20.3862L35.6604 18.6477L33.1283 14.2862L26.5628 24.6971C25.7769 25.9355 24.1574 26.3166 22.919 25.5306L15.0122 20.5532C13.7738 19.7673 13.3928 18.1478 14.1787 16.9094L23.0562 2.83168C23.0336 2.86343 23.0117 2.89596 22.9905 2.92933C23.0274 2.87103 23.065 2.81344 23.1036 2.75659L23.2048 2.59605L23.2327 2.57345C24.4037 0.973752 26.2799 0 28.3014 0H38.0896C40.3283 0 42.4241 1.19078 43.5434 3.14367L48.2827 11.3363ZM19.1085 25.8876L23.0619 40.9392C23.3477 42.0347 22.1807 42.9873 21.1805 42.4395L18.132 40.8439L15.7929 45.2974H27.9918C29.4445 45.2974 30.6353 46.4882 30.6353 47.941V57.3005C30.6353 58.7533 29.4445 59.9441 27.9918 59.9441H11.2383C11.3427 59.9598 11.4497 59.9679 11.5589 59.9679C9.39164 59.9679 7.36731 58.8724 6.22416 57.0386L0.984707 48.7507C-0.229893 46.8454 -0.325156 44.4639 0.722734 42.4634L5.10482 34.0802L2.58036 32.7466C1.5801 32.1988 1.67536 30.7222 2.74707 30.3174L17.3699 24.9826C18.1082 24.7207 18.9179 25.1255 19.1085 25.8876ZM51.0227 45.0862L45.3534 34.1757C44.6627 32.8659 45.1867 31.2702 46.4727 30.6034L54.7844 26.2927C56.0943 25.6021 57.6899 26.126 58.3568 27.4121L66.1445 42.4398L66.154 42.505C66.9418 44.3391 66.8275 46.4318 65.8111 48.1555L60.8574 56.6101C59.7142 58.563 57.6185 59.73 55.3798 59.73L45.9012 59.6823V62.5402C45.9012 63.7072 44.5437 64.3026 43.6863 63.5167L32.2071 53.0139C31.6356 52.49 31.6356 51.585 32.2071 51.0611L43.7577 40.6298C44.6151 39.8439 45.9726 40.4631 45.9726 41.6062L45.9488 45.0595L51.0227 45.0862Z" fill="#ECF7A3"/>
</svg>
